<svg width="180" height="43" viewBox="0 0 180 43" fill="none" xmlns="http://www.w3.org/2000/svg">
<path d="M171.869 36.6798V34.7763H174.818V31.1799H171.869V29.2764H179.709V31.1799H176.331V34.7763H179.709V36.6798H171.869Z" fill="white"/>
<path d="M171.869 25.4271H176.293C177.948 25.4271 178.377 24.5619 178.377 23.5913C178.377 22.5455 177.948 21.8684 176.293 21.8684H171.869V19.9648H176.368C178.746 19.9648 179.89 21.2966 179.89 23.6365C179.89 25.9011 178.844 27.3382 176.436 27.3382H171.907L171.869 25.4271Z" fill="white"/>
<path d="M171.869 18.0139V13.6652C171.869 11.7917 172.772 10.9641 173.886 10.9641C174.788 10.9641 175.323 11.5359 175.541 12.1529C175.789 11.4005 176.368 10.7158 177.339 10.7158C178.814 10.7158 179.679 11.8293 179.679 13.7705V18.0516L171.869 18.0139ZM174.924 14.094C174.924 13.2288 174.6 12.9805 174.096 12.9805C173.524 12.9805 173.269 13.4094 173.269 14.094V16.1781H174.924V14.094ZM178.272 16.148V13.9887C178.272 13.2664 178.054 12.6946 177.264 12.6946C176.654 12.6946 176.331 13.1234 176.331 13.9511V16.148H178.272Z" fill="white"/>
<path d="M17.66 1.01766C16.411 0.694133 14.816 0.536133 12.92 0.536133H1.76964C1.53641 0.536133 1.24297 0.536131 0.979639 0.716703C0.68621 0.934894 0.550781 1.20575 0.550781 1.54432V36.1464C0.550781 36.643 0.957069 37.0493 1.45364 37.0493H6.45699C6.93099 37.0493 7.32223 36.6656 7.32223 36.184V26.1397C8.08214 26.1397 8.87214 26.1473 9.69976 26.1623C12.3181 26.2074 15.0266 26.2526 17.1258 25.7635C22.9718 24.3867 26.839 19.6316 26.982 13.6577C27.1099 7.63863 23.4608 2.68042 17.66 1.01766ZM20.2256 13.3793C20.2256 16.6522 17.502 19.3156 14.1463 19.3156H7.31471V7.33015H14.1463C17.4944 7.33015 20.2256 9.99359 20.2256 13.2665V13.3793Z" fill="#383838"/>
<path d="M80.5051 11.9326H75.9381C75.4716 11.9326 75.1105 12.2938 75.1105 12.7602C75.1481 15.5666 75.4716 19.5919 74.5688 21.8565C72.8458 26.2053 66.7289 26.6417 64.3514 22.5788C62.9143 20.1712 63.3808 15.3108 63.4185 12.5797C63.4185 12.2185 63.1325 11.9326 62.7714 11.9326H58.0239C57.738 11.9326 57.595 12.0756 57.595 12.3615C57.5198 14.8067 57.5198 17.2143 57.595 19.6295C57.6326 21.1418 57.8433 22.3983 58.2044 23.4065C60.3638 29.4105 66.8343 32.8338 73.0264 30.7046C73.5681 30.524 74.2829 30.1328 74.9299 29.877C75.0353 29.8393 75.1105 29.877 75.1782 29.9823C75.3211 33.0746 74.7794 34.6922 73.3424 35.738C70.2501 38.2585 65.7508 36.6033 63.9526 33.1498C63.8097 32.8639 63.4862 32.7511 63.2003 32.8639C61.8685 33.368 60.4992 33.9097 59.175 34.4138C58.5656 34.6621 58.3474 35.0609 58.5656 35.6026C59.6791 38.3714 62.1996 40.6737 65.0436 41.7496C71.4464 44.1948 78.5714 40.7414 80.5427 34.158C80.9038 32.9693 81.0844 32.6833 81.0844 29.734C81.0844 23.9407 81.0844 18.1849 81.0844 12.5044C81.0844 12.1884 80.8286 11.9326 80.5051 11.9326Z" fill="#383838"/>
<path d="M102.58 1.01766C101.294 0.694133 99.6911 0.536133 97.8101 0.536133H86.6598C86.4265 0.536133 86.1331 0.536131 85.8698 0.716703C85.5764 0.934894 85.4409 1.20575 85.4409 1.54432V36.1464C85.4409 36.643 85.8472 37.0493 86.3438 37.0493H91.3396C91.8136 37.0493 92.2048 36.6656 92.2048 36.184V26.1397C92.9723 26.1397 93.7773 26.1473 94.6125 26.1623C97.2308 26.2074 99.9394 26.2526 102.039 25.7635C107.885 24.3867 111.752 19.6316 111.895 13.6577C112.03 7.63863 108.381 2.68042 102.58 1.01766ZM105.108 13.3793C105.108 16.6522 102.385 19.3156 99.029 19.3156H92.1973V7.33015H99.029C102.377 7.33015 105.108 9.99359 105.108 13.2665V13.3793Z" fill="#383838"/>
<path d="M32.6706 12.4097C31.1207 12.6279 30.1501 12.5526 29.8642 14.3885C29.6836 15.5396 29.7589 16.6907 30.0824 17.9096C30.1576 18.1278 30.3683 18.3084 30.6241 18.2708C35.1234 17.9848 48.749 15.2161 46.379 24.493C46.3414 24.7111 46.1984 24.8165 45.9802 24.7789C39.8634 24.5983 27.6748 23.2666 26.343 32.5134C26.1625 33.8451 26.1249 35.0639 26.2377 36.1474H33.1446C32.5728 34.4545 33.0694 32.1522 34.2581 31.144C36.5604 29.2405 43.1438 29.7747 46.0931 29.9929C46.3414 29.9929 46.4543 30.1358 46.4543 30.3916C46.5596 32.1522 46.7402 34.4545 45.9878 36.185H52.8194C52.9624 35.1768 53.0376 33.988 53.0677 32.6563C53.2483 26.72 53.2483 22.6948 53.0677 20.6031C52.2702 11.3263 39.4345 11.4015 32.6706 12.4097Z" fill="#383838"/>
<path d="M165.751 11.9326H161.184C160.717 11.9326 160.356 12.2938 160.356 12.7602C160.394 15.5666 160.717 19.5919 159.814 21.8565C158.091 26.2053 151.975 26.6417 149.597 22.5788C148.16 20.1712 148.626 15.3108 148.664 12.5797C148.664 12.2185 148.378 11.9326 148.017 11.9326H143.269C142.984 11.9326 142.841 12.0756 142.841 12.3615C142.765 14.8067 142.765 17.2143 142.841 19.6295C142.878 21.1418 143.089 22.3983 143.45 23.4065C145.609 29.4105 152.08 32.8338 158.272 30.7046C158.814 30.524 159.528 30.1328 160.176 29.877C160.281 29.8393 160.356 29.877 160.424 29.9823C160.567 33.0746 160.025 34.6922 158.588 35.738C155.496 38.2585 150.996 36.6033 149.198 33.1498C149.055 32.8639 148.732 32.7511 148.446 32.8639C147.114 33.368 145.745 33.9097 144.421 34.4138C143.811 34.6621 143.593 35.0609 143.811 35.6026C144.925 38.3714 147.445 40.6737 150.289 41.7496C156.692 44.1948 163.817 40.7414 165.788 34.158C166.149 32.9693 166.33 32.6833 166.33 29.734C166.33 23.9407 166.33 18.1849 166.33 12.5044C166.33 12.1884 166.074 11.9326 165.751 11.9326Z" fill="#383838"/>
<path d="M117.916 12.4097C116.366 12.6279 115.395 12.5526 115.109 14.3885C114.929 15.5396 115.004 16.6907 115.328 17.9096C115.403 18.1278 115.613 18.3084 115.869 18.2708C120.368 17.9848 133.994 15.2161 131.624 24.493C131.587 24.7111 131.444 24.8165 131.225 24.7789C125.108 24.5983 112.92 23.2666 111.588 32.5134C111.408 33.8451 111.37 35.0639 111.483 36.1474H118.39C117.818 34.4545 118.314 32.1522 119.503 31.144C121.806 29.2405 128.389 29.7747 131.338 29.9929C131.587 29.9929 131.699 30.1358 131.699 30.3916C131.805 32.1522 131.985 34.4545 131.233 36.185H138.065C138.207 35.1768 138.283 33.988 138.313 32.6563C138.493 26.72 138.493 22.6948 138.313 20.6031C137.515 11.3263 124.68 11.4015 117.916 12.4097Z" fill="#383838"/>
</svg>
