<svg width="181" height="43" viewBox="0 0 181 43" fill="none" xmlns="http://www.w3.org/2000/svg">
<path d="M172.836 36.1622V34.2594H175.794V30.6626H172.836V28.7598H180.709V30.6626H177.317V34.2594H180.709V36.1622H172.836Z" fill="#AED24D"/>
<path d="M172.836 24.9068H177.277C178.937 24.9068 179.372 24.0397 179.372 23.0762C179.372 22.0325 178.937 21.3501 177.277 21.3501H172.836V19.4473H177.349C179.734 19.4473 180.887 20.78 180.887 23.1164C180.887 25.3804 179.839 26.8176 177.422 26.8176H172.877L172.836 24.9068Z" fill="#AED24D"/>
<path d="M172.836 17.4953V13.1438C172.836 11.2731 173.739 10.4462 174.859 10.4462C175.762 10.4462 176.302 11.0242 176.519 11.6344C176.769 10.8797 177.349 10.1973 178.324 10.1973C179.807 10.1973 180.669 11.3132 180.669 13.2562V17.5355L172.836 17.4953ZM175.907 13.5773C175.907 12.7102 175.584 12.4613 175.077 12.4613C174.496 12.4613 174.247 12.8949 174.247 13.5773V15.6648H175.907V13.5773ZM179.259 15.6246V13.4649C179.259 12.7424 179.041 12.1723 178.252 12.1723C177.639 12.1723 177.317 12.6059 177.317 13.4328V15.6246H179.259Z" fill="#AED24D"/>
<path d="M18.0672 0.507109C16.8181 0.185963 15.2145 0.0253906 13.3127 0.0253906H2.11965C1.88596 0.0253906 1.59586 0.0253916 1.32187 0.202022C1.03177 0.418796 0.886719 0.69177 0.886719 1.02897V35.6325C0.886719 36.1303 1.28964 36.5317 1.78926 36.5317H6.80963C7.28507 36.5317 7.67993 36.1464 7.67993 35.6646V25.6288C8.43742 25.6288 9.2352 25.6368 10.0652 25.6529C12.6922 25.7011 15.416 25.7492 17.5192 25.2595C23.3857 23.8866 27.2698 19.1336 27.4149 13.1523C27.5519 7.12273 23.8853 2.16101 18.0672 0.507109ZM20.6378 12.8632C20.6378 16.1389 17.898 18.7964 14.5376 18.7964H7.67993V6.81764H14.5376C17.898 6.81764 20.6378 9.48316 20.6378 12.7508V12.8632Z" fill="white"/>
<path d="M81.1402 11.418H76.555C76.0876 11.418 75.7249 11.7793 75.7249 12.2449C75.7572 15.0469 76.0876 19.0773 75.185 21.3414C73.4525 25.6929 67.312 26.1265 64.9348 22.064C63.4923 19.6554 63.9597 14.798 64 12.0683C64 11.707 63.7099 11.418 63.3473 11.418H58.5848C58.2947 11.418 58.1496 11.5625 58.1496 11.8515C58.0771 14.3003 58.0771 16.7089 58.1496 19.1175C58.1818 20.6269 58.3994 21.8874 58.7621 22.8909C60.9298 28.8964 67.4248 32.3166 73.6378 30.189C74.1777 30.0124 74.903 29.6109 75.5477 29.362C75.6524 29.3299 75.7249 29.362 75.7975 29.4664C75.9425 32.5574 75.4026 34.1792 73.9602 35.223C70.8577 37.744 66.345 36.0901 64.5399 32.6297C64.3949 32.3407 64.0725 32.2363 63.7824 32.3407C62.4447 32.8465 61.0748 33.3844 59.7371 33.8902C59.1247 34.1391 58.9071 34.5405 59.1247 35.0784C60.2448 37.8483 62.7671 40.1526 65.6197 41.2284C72.0423 43.6772 79.19 40.2248 81.1805 33.6413C81.5431 32.4531 81.7204 32.164 81.7204 29.2175C81.7204 23.4289 81.7204 17.6723 81.7204 11.988C81.7204 11.6749 81.4706 11.418 81.1402 11.418Z" fill="white"/>
<path d="M103.293 0.499297C102.003 0.17815 100.392 0.0175781 98.5061 0.0175781H87.313C87.0793 0.0175781 86.7892 0.0175791 86.5152 0.19421C86.2251 0.410984 86.0801 0.683957 86.0801 1.02116V35.6247C86.0801 36.1225 86.483 36.5239 86.9826 36.5239H92.003C92.4784 36.5239 92.8733 36.1385 92.8733 35.6568V25.621C93.6469 25.621 94.4527 25.629 95.2908 25.6451C97.9178 25.6933 100.642 25.7414 102.745 25.2517C108.611 23.8788 112.495 19.1258 112.64 13.1444C112.786 7.12295 109.119 2.16123 103.293 0.499297ZM105.839 12.8634C105.839 16.1391 103.099 18.7966 99.739 18.7966H92.8814V6.81786H99.739C103.099 6.81786 105.839 9.48338 105.839 12.751V12.8634Z" fill="white"/>
<path d="M33.1283 11.8927C31.573 12.1095 30.598 12.0372 30.3159 13.8678C30.1306 15.0159 30.2031 16.172 30.5335 17.3923C30.606 17.6091 30.8236 17.7858 31.0734 17.7536C35.5861 17.4646 49.2692 14.6947 46.8839 23.9759C46.8517 24.1926 46.7067 24.297 46.4891 24.2649C40.3486 24.0883 28.116 22.7555 26.7783 31.9965C26.601 33.3293 26.5607 34.5496 26.6735 35.6254H33.6037C33.0235 33.9314 33.5312 31.6352 34.7238 30.6236C37.0366 28.7208 43.6445 29.2587 46.6019 29.4755C46.8517 29.4755 46.9645 29.62 46.9645 29.8689C47.0693 31.6352 47.2546 33.9314 46.4971 35.6576H53.3548C53.4999 34.654 53.5724 33.4657 53.6046 32.133C53.7819 26.1998 53.7819 22.1694 53.6046 20.0819C52.8068 10.8088 39.9134 10.8811 33.1283 11.8927Z" fill="white"/>
<path d="M166.704 11.418H162.119C161.652 11.418 161.289 11.7793 161.289 12.2449C161.321 15.0469 161.652 19.0773 160.749 21.3414C159.016 25.6929 152.876 26.1265 150.499 22.064C149.056 19.6554 149.524 14.798 149.564 12.0683C149.564 11.707 149.274 11.418 148.911 11.418H144.149C143.859 11.418 143.714 11.5625 143.714 11.8515C143.641 14.3003 143.641 16.7089 143.714 19.1175C143.746 20.6269 143.963 21.8874 144.326 22.8909C146.494 28.8964 152.989 32.3166 159.202 30.189C159.742 30.0124 160.467 29.6109 161.112 29.362C161.216 29.3299 161.289 29.362 161.361 29.4664C161.506 32.5574 160.967 34.1792 159.524 35.223C156.422 37.744 151.909 36.0901 150.104 32.6297C149.959 32.3407 149.636 32.2363 149.346 32.3407C148.009 32.8465 146.639 33.3844 145.301 33.8902C144.689 34.1391 144.471 34.5405 144.689 35.0784C145.809 37.8483 148.331 40.1526 151.184 41.2284C157.606 43.6772 164.754 40.2248 166.744 33.6413C167.107 32.4531 167.284 32.164 167.284 29.2175C167.284 23.4289 167.284 17.6723 167.284 11.988C167.276 11.6749 167.026 11.418 166.704 11.418Z" fill="white"/>
<path d="M118.684 11.8927C117.129 12.1095 116.154 12.0372 115.872 13.8678C115.694 15.0159 115.767 16.172 116.089 17.3923C116.162 17.6091 116.379 17.7858 116.629 17.7536C121.142 17.4646 134.825 14.6947 132.44 23.9759C132.407 24.1926 132.262 24.297 132.045 24.2649C125.904 24.0883 113.672 22.7555 112.334 31.9965C112.157 33.3293 112.116 34.5496 112.229 35.6254H119.159C118.579 33.9314 119.087 31.6352 120.28 30.6236C122.592 28.7208 129.2 29.2587 132.158 29.4755C132.407 29.4755 132.52 29.62 132.52 29.8689C132.625 31.6352 132.81 33.9314 132.053 35.6576H138.91C139.056 34.654 139.128 33.4657 139.16 32.133C139.338 26.1998 139.338 22.1694 139.16 20.0819C138.363 10.8088 125.477 10.8811 118.684 11.8927Z" fill="white"/>
</svg>
