<svg width="57" height="56" viewBox="0 0 57 56" fill="none" xmlns="http://www.w3.org/2000/svg">
<mask id="mask0_1239_1409" style="mask-type:alpha" maskUnits="userSpaceOnUse" x="0" y="0" width="57" height="56">
<rect x="0.5" width="56" height="56" rx="1" fill="#D9D9D9"/>
</mask>
<g mask="url(#mask0_1239_1409)">
<path d="M4.41675 48.4162C3.86446 48.4162 3.41675 47.9685 3.41675 47.4162V38.9163C3.41675 38.3641 3.86446 37.9163 4.41675 37.9163H5.91675C6.46903 37.9163 6.91675 38.3641 6.91675 38.9163V44.5163C6.91675 44.7373 7.09583 44.9163 7.31675 44.9163H12.9167C13.469 44.9163 13.9167 45.3641 13.9167 45.9163V47.4162C13.9167 47.9685 13.469 48.4162 12.9167 48.4162H4.41675ZM44.0835 48.4162C43.5312 48.4162 43.0835 47.9685 43.0835 47.4162V45.9163C43.0835 45.3641 43.5312 44.9163 44.0835 44.9163H49.6835C49.9044 44.9163 50.0835 44.7373 50.0835 44.5163V38.9163C50.0835 38.3641 50.5312 37.9163 51.0835 37.9163H52.5834C53.1356 37.9163 53.5834 38.3641 53.5834 38.9163V47.4162C53.5834 47.9685 53.1356 48.4162 52.5834 48.4162H44.0835ZM10.8334 41.9996C10.2811 41.9996 9.83341 41.5519 9.83341 40.9996V14.9996C9.83341 14.4473 10.2811 13.9996 10.8334 13.9996H13.5001C14.0524 13.9996 14.5001 14.4473 14.5001 14.9996V40.9996C14.5001 41.5519 14.0524 41.9996 13.5001 41.9996H10.8334ZM17.8334 41.9996C17.2811 41.9996 16.8334 41.5519 16.8334 40.9996V14.9996C16.8334 14.4473 17.2811 13.9996 17.8334 13.9996H18.1667C18.719 13.9996 19.1667 14.4473 19.1667 14.9996V40.9996C19.1667 41.5519 18.719 41.9996 18.1667 41.9996H17.8334ZM24.8334 41.9996C24.2811 41.9996 23.8334 41.5519 23.8334 40.9996V14.9996C23.8334 14.4473 24.2811 13.9996 24.8334 13.9996H27.5001C28.0524 13.9996 28.5001 14.4473 28.5001 14.9996V40.9996C28.5001 41.5519 28.0524 41.9996 27.5001 41.9996H24.8334ZM31.8334 41.9996C31.2811 41.9996 30.8334 41.5519 30.8334 40.9996V14.9996C30.8334 14.4473 31.2811 13.9996 31.8334 13.9996H36.8334C37.3857 13.9996 37.8334 14.4473 37.8334 14.9996V40.9996C37.8334 41.5519 37.3857 41.9996 36.8334 41.9996H31.8334ZM41.1667 41.9996C40.6145 41.9996 40.1667 41.5519 40.1667 40.9996V14.9996C40.1667 14.4473 40.6145 13.9996 41.1667 13.9996H41.5001C42.0524 13.9996 42.5001 14.4473 42.5001 14.9996V40.9996C42.5001 41.5519 42.0524 41.9996 41.5001 41.9996H41.1667ZM45.8334 41.9996C45.2811 41.9996 44.8334 41.5519 44.8334 40.9996V14.9996C44.8334 14.4473 45.2811 13.9996 45.8334 13.9996H46.1667C46.719 13.9996 47.1667 14.4473 47.1667 14.9996V40.9996C47.1667 41.5519 46.719 41.9996 46.1667 41.9996H45.8334ZM4.41675 18.0829C3.86446 18.0829 3.41675 17.6352 3.41675 17.0829V8.58301C3.41675 8.03072 3.86446 7.58301 4.41675 7.58301H12.9167C13.469 7.58301 13.9167 8.03072 13.9167 8.58301V10.0829C13.9167 10.6352 13.469 11.0829 12.9167 11.0829H7.31675C7.09583 11.0829 6.91675 11.262 6.91675 11.4829V17.0829C6.91675 17.6352 6.46903 18.0829 5.91675 18.0829H4.41675ZM51.0835 18.0829C50.5312 18.0829 50.0835 17.6352 50.0835 17.0829V11.4829C50.0835 11.262 49.9044 11.0829 49.6835 11.0829H44.0835C43.5312 11.0829 43.0835 10.6352 43.0835 10.0829V8.58301C43.0835 8.03072 43.5312 7.58301 44.0835 7.58301H52.5834C53.1356 7.58301 53.5834 8.03072 53.5834 8.58301V17.0829C53.5834 17.6352 53.1356 18.0829 52.5834 18.0829H51.0835Z" fill="#3E4041"/>
</g>
</svg>
