<svg width="57" height="56" viewBox="0 0 57 56" fill="none" xmlns="http://www.w3.org/2000/svg">
<path d="M16.0458 41.1099C17.5318 41.0121 18.6038 40.7279 19.4113 40.3611C20.3987 39.9126 20.9568 39.354 21.357 38.9535L21.3868 38.9236L28.4335 31.8769C28.5662 31.7442 28.7227 31.72 28.8033 31.72C28.8839 31.72 29.0403 31.7442 29.1731 31.8769L36.1964 38.9002C37.6574 40.3612 39.2123 40.9214 40.942 41.0754L33.0702 48.926L33.07 48.9263C31.8512 50.1435 30.1991 50.8272 28.4766 50.8272C26.7541 50.8272 25.102 50.1435 23.8833 48.9263L23.883 48.926L16.0458 41.1099ZM33.1402 7.07405L41.0097 14.9224C39.2551 15.0711 37.6131 15.623 36.1461 17.1501L29.1731 24.1231C29.0783 24.218 28.9247 24.28 28.8033 24.28C28.6819 24.28 28.5283 24.218 28.4335 24.1231L21.3868 17.0765C21.3707 17.0604 21.3543 17.0439 21.3375 17.027C20.9726 16.661 20.4289 16.1155 19.4685 15.6674C18.6662 15.293 17.595 14.9953 16.1137 14.8923L23.953 7.07406L23.9533 7.0738C25.172 5.85656 26.8241 5.17285 28.5466 5.17285C30.2691 5.17285 31.9212 5.85656 33.14 7.0738L33.1402 7.07405Z" fill="#383838" stroke="#383838"/>
<path d="M49.4023 23.3359L49.4038 23.3373C50.639 24.5679 51.3369 26.2373 51.345 27.9808C51.3531 29.7238 50.6712 31.3992 49.4482 32.6412C49.4479 32.6415 49.4475 32.6418 49.4472 32.6422L44.3456 37.7664H41.6134C40.4639 37.7664 39.3774 37.3067 38.5836 36.5129L31.5602 29.4895C30.8082 28.7375 29.8155 28.3631 28.8267 28.3631C27.8378 28.3631 26.8451 28.7375 26.0931 29.4895L19.0488 36.5339C18.2281 37.3324 17.1394 37.7898 16.0167 37.7898H12.7711L7.57435 32.5703L7.5738 32.5698C6.35656 31.351 5.67285 29.6989 5.67285 27.9764C5.67285 26.2539 6.35656 24.6018 7.5738 23.3831L7.57435 23.3825L12.7711 18.1631H15.9934C17.1426 18.1631 18.229 18.6227 19.0227 19.4162C19.0229 19.4164 19.023 19.4165 19.0231 19.4166L26.0692 26.4861L26.0691 26.4861L26.0763 26.493C26.8078 27.1983 27.7803 27.5987 28.7963 27.613V27.6131H28.8034C29.7922 27.6131 30.7849 27.2386 31.5369 26.4866L38.5369 19.4866L38.537 19.4868L38.5461 19.4772C39.3097 18.6723 40.436 18.2098 41.5667 18.2098H44.2989L49.4023 23.3359Z" fill="#383838" stroke="#383838"/>
</svg>
