<svg width="25" height="24" viewBox="0 0 25 24" fill="none" xmlns="http://www.w3.org/2000/svg">
<path fill-rule="evenodd" clip-rule="evenodd" d="M5.57805 5.29289C5.96857 4.90237 6.60174 4.90237 6.99226 5.29289L12.2852 10.5858L17.578 5.29289C17.9686 4.90237 18.6017 4.90237 18.9923 5.29289C19.3828 5.68342 19.3828 6.31658 18.9923 6.70711L13.6994 12L18.9923 17.2929C19.3828 17.6834 19.3828 18.3166 18.9923 18.7071C18.6017 19.0976 17.9686 19.0976 17.578 18.7071L12.2852 13.4142L6.99226 18.7071C6.60174 19.0976 5.96857 19.0976 5.57805 18.7071C5.18753 18.3166 5.18753 17.6834 5.57805 17.2929L10.8709 12L5.57805 6.70711C5.18753 6.31658 5.18753 5.68342 5.57805 5.29289Z" fill="#717577"/>
</svg>
